<svg xmlns="http://www.w3.org/2000/svg" width="140.126" height="159.28" viewBox="0 0 140.126 159.28">
  <g id="alpha-bnb" transform="translate(-751.794 -522.907)">
    <g id="Group_28" data-name="Group 28" transform="translate(751.794 522.907)">
      <g id="Group_4" data-name="Group 4" transform="translate(48.458 77.544)">
        <path id="Path_1" data-name="Path 1" d="M1625.631,1907.249l13.652,59a4.251,4.251,0,0,1-3.184,5.1l-2.411.558a4.251,4.251,0,0,1-5.1-3.184l-13.652-59a4.251,4.251,0,0,1,3.184-5.1l2.411-.558A4.251,4.251,0,0,1,1625.631,1907.249Z" transform="translate(-1614.826 -1903.955)" fill="#fff"/>
      </g>
      <g id="Group_5" data-name="Group 5" transform="translate(47.422 76.508)">
        <path id="Path_2" data-name="Path 2" d="M1615.3,1955.632a5.292,5.292,0,0,1-5.14-4.1l-13.652-59a5.287,5.287,0,0,1,3.959-6.343l2.411-.558a5.287,5.287,0,0,1,6.343,3.959l13.652,59a5.293,5.293,0,0,1-3.959,6.343l-2.411.558A5.334,5.334,0,0,1,1615.3,1955.632Zm3.379-1.7h0Zm-14.6-66.359a3.243,3.243,0,0,0-.731.084l-2.411.558a3.216,3.216,0,0,0-2.408,3.859l13.652,59a3.22,3.22,0,0,0,3.859,2.408l2.411-.558a3.22,3.22,0,0,0,2.408-3.859l-13.652-59a3.22,3.22,0,0,0-3.127-2.493Z" transform="translate(-1596.366 -1885.497)" fill="#b400ff"/>
      </g>
      <g id="Group_6" data-name="Group 6" transform="translate(48.171 78.083)" opacity="0.3">
        <path id="Path_3" data-name="Path 3" d="M1618.47,1916.852l13.652,59a4.251,4.251,0,0,1-3.184,5.1l-.368.085a4.177,4.177,0,0,1-1.531.069,4.245,4.245,0,0,0,1.778-4.49l-9.343-40.376a2.968,2.968,0,0,0-2.693-2.28,32.415,32.415,0,0,1-3.576-.467l-3.388-14.64a4.245,4.245,0,0,1,1.778-4.49c.1-.069.206-.134.313-.193a.064.064,0,0,1,.022-.01c.043-.024.083-.046.127-.067.106-.054.213-.1.324-.145a1.271,1.271,0,0,1,.136-.05c.035-.013.069-.027.1-.038.063-.02.125-.04.188-.057s.126-.035.19-.05l.368-.085A4.251,4.251,0,0,1,1618.47,1916.852Z" transform="translate(-1609.707 -1913.558)" fill="#000072"/>
      </g>
      <g id="Group_7" data-name="Group 7" transform="translate(1.263 1.263)">
        <path id="Path_4" data-name="Path 4" d="M861.84,588.1a43.78,43.78,0,0,1-87.219,6.442q-.256-2.1-.313-4.268a43.585,43.585,0,0,1,5.836-22.965h0a43.778,43.778,0,0,1,81.564,18.356c.03.372.054.747.075,1.125v0q.03.492.042.984C861.835,587.885,861.838,587.994,861.84,588.1Z" transform="translate(-774.295 -545.408)" fill="#2dd1f7"/>
      </g>
      <g id="Group_8" data-name="Group 8" transform="translate(54.539 19.982)">
        <path id="Path_5" data-name="Path 5" d="M1755.265,912.128c-1.217-19.2-24.519-32.282-29.61-12.728l.3-3.851c-10.263-14.87,9.365-23.983,27.744-9.38C1753.7,886.169,1760.448,896.157,1755.265,912.128Z" transform="translate(-1723.13 -878.78)" fill="#8a67f9"/>
      </g>
      <g id="Group_9" data-name="Group 9" transform="translate(47.036 47.423)">
        <path id="Path_6" data-name="Path 6" d="M1589.5,1395.342c11.676-2.865,15.2-17.411,15.2-17.411a26.753,26.753,0,0,0,7.229-10.429s5.364,11.883.394,23A33,33,0,0,1,1589.5,1395.342Z" transform="translate(-1589.503 -1367.502)" fill="#8a67f9"/>
      </g>
      <g id="Group_10" data-name="Group 10" transform="translate(16.802 78.494)">
        <path id="Path_7" data-name="Path 7" d="M1105.742,1922.3a43.854,43.854,0,0,1-35.425,7.99c-.1-.071-.193-.137-.271-.195-.3-.007-.592-.026-.889-.061a52.5,52.5,0,0,1-18.126-9.155c.288.158,11.625,6.3,24.773,3.119l6.379,1.04,20.965-3.556Z" transform="translate(-1051.031 -1920.88)" fill="#8a67f9"/>
      </g>
      <g id="Group_11" data-name="Group 11" transform="translate(22.881 58.683)">
        <path id="Path_8" data-name="Path 8" d="M1159.3,1568.039c4.519,3.721,10.148,4.979,17.81,1.732l6.023,1.884a20.208,20.208,0,0,1-16.756,5.572A77.883,77.883,0,0,1,1159.3,1568.039Z" transform="translate(-1159.304 -1568.039)" fill="#8a67f9"/>
      </g>
      <g id="Group_12" data-name="Group 12" transform="translate(23.815 24.009)">
        <path id="Path_9" data-name="Path 9" d="M1187.577,950.5s-4.2,4.954-3.591,14.482c0,0-2.122,6.477.11,11.679-5.736-1.83-9.625-5.758-7.624-16.375C1176.472,960.285,1180.928,952.62,1187.577,950.5Z" transform="translate(-1175.941 -950.499)" fill="#8a67f9"/>
      </g>
      <g id="Group_13" data-name="Group 13" transform="translate(1.263 23.165)">
        <path id="Path_10" data-name="Path 10" d="M794.778,981.584c-8.205-2.755-17.735-10.153-20.156-18.875q-.256-2.1-.313-4.268a43.584,43.584,0,0,1,5.836-22.964h0a39.666,39.666,0,0,0,6.339,29.468S788.288,977.229,794.778,981.584Z" transform="translate(-774.295 -935.477)" fill="#8a67f9"/>
      </g>
      <g id="Group_14" data-name="Group 14" transform="translate(12.946 14.994)">
        <path id="Path_11" data-name="Path 11" d="M1058.222,818.912a43.6,43.6,0,0,1-10.148,29.132,45.545,45.545,0,0,1-5.043,3.537,42.161,42.161,0,0,1-19.7,6.138,43.355,43.355,0,0,1-10.339-.711,42.5,42.5,0,0,1-5.045-1.3l-.62-.2-.615-.224c-.409-.152-.818-.3-1.225-.455-.8-.341-1.614-.661-2.4-1.05-.8-.359-1.561-.784-2.335-1.2-.381-.213-.754-.443-1.132-.664l-.565-.338-.551-.362a35.948,35.948,0,0,1-4.2-3.183,34.7,34.7,0,0,1-9.251-12.807,36.7,36.7,0,0,1-1.661-5.048c-.105-.429-.19-.865-.284-1.295l-.14-.651-.1-.651-.207-1.309-.136-1.313-.067-.655-.034-.659-.065-1.315,0-1.344c0-.447.037-.894.055-1.342a32.478,32.478,0,0,1,.768-5.316,31.675,31.675,0,0,1,1.678-5.11,31.273,31.273,0,0,1,5.789-9,31.535,31.535,0,0,1,18.62-9.925l.666-.1.667-.073c.446-.038.891-.1,1.338-.116s.892-.049,1.345-.063c.459,0,.92-.005,1.379.007a26.009,26.009,0,0,1,15.331,5.6,26.283,26.283,0,0,1,6.986,8.47,25.993,25.993,0,0,1,2.858,10.6l.032.692,0,.713c.009.476-.033.951-.053,1.427a22.312,22.312,0,0,1-.4,2.833,21.53,21.53,0,0,1-20.332,17.1,18.859,18.859,0,0,1-5.878-.759,17.417,17.417,0,0,1-5.318-2.646,18.387,18.387,0,0,1-4.173-4.217,17.913,17.913,0,0,1-2.557-5.366,12.291,12.291,0,0,1-.353-1.45l-.131-.734a6.231,6.231,0,0,1-.1-.737l-.111-1.486c-.013-.509.013-1.036.026-1.554a14.886,14.886,0,0,1,1.719-5.99,15.8,15.8,0,0,1,9.518-7.675,14.932,14.932,0,0,1,3.114-.542c.136-.006.26-.024.4-.025h.423l.841.018c.279.026.561.057.84.095l.419.058c.14.023.277.058.413.088.277.061.551.128.824.2s.537.176.8.27a6.194,6.194,0,0,1,.783.318c.255.118.512.239.761.366s.484.287.724.432l.358.222c.114.077.223.166.338.249l.661.516c.209.181.412.375.612.568l.3.292.277.31c.183.211.363.42.537.635l.476.678.23.343.2.359c.133.239.269.479.4.718s.22.5.324.755c.053.126.107.249.154.378l.125.387c.083.261.164.52.238.778s.114.53.165.792l.075.4.04.4.073.8c.006.266,0,.533,0,.8a10.861,10.861,0,0,1-.152,1.628c-.055.271-.114.541-.181.806s-.167.525-.253.784a9.6,9.6,0,0,1-1.588,2.788,9.092,9.092,0,0,1-2.356,1.994,7.931,7.931,0,0,1-5.583,1,.928.928,0,0,1-.1-1.793l.056-.019a5.952,5.952,0,0,0,4.334-5.292c-.006-.13.009-.255,0-.379s-.024-.251-.033-.375a5.4,5.4,0,0,0-.152-.748c-.039-.132-.063-.265-.1-.391l-.136-.375-.064-.188-.09-.175q-.089-.175-.16-.351a6.638,6.638,0,0,0-.865-1.239l-.119-.142-.134-.13c-.091-.084-.179-.17-.264-.254s-.193-.149-.284-.23l-.139-.115-.151-.1c-.1-.066-.2-.137-.292-.206s-.21-.116-.309-.176a2.225,2.225,0,0,0-.312-.161c-.108-.051-.207-.107-.315-.155-.224-.065-.422-.188-.651-.232l-.328-.1c-.113-.021-.223-.039-.336-.069-.054-.013-.11-.03-.167-.04l-.169-.02c-.115-.012-.229-.033-.342-.054-.115,0-.231-.009-.349-.015l-.175-.013c-.056,0-.13.006-.192.008a8.414,8.414,0,0,0-1.585.17,7.217,7.217,0,0,0-2.908,1.321,7.723,7.723,0,0,0-2.977,5.572c0,.275-.016.542-.012.823.025.3.047.594.067.892a2.764,2.764,0,0,0,.067.439l.076.439a5.786,5.786,0,0,0,.211.859,10.768,10.768,0,0,0,1.514,3.193,11.152,11.152,0,0,0,2.5,2.515,10.143,10.143,0,0,0,3.164,1.578,11.534,11.534,0,0,0,3.521.454,14.257,14.257,0,0,0,7.168-2.217,14.492,14.492,0,0,0,5.061-5.558,14.164,14.164,0,0,0,1.258-3.564,14.787,14.787,0,0,0,.267-1.877c.01-.317.046-.634.036-.951v-.479l-.024-.5a18.741,18.741,0,0,0-2.06-7.645,19.053,19.053,0,0,0-5.043-6.115,18.71,18.71,0,0,0-11.051-4.037c-.332-.009-.666,0-1,0l-1.034.047c-.349.009-.691.062-1.033.091l-.516.054-.513.078A24.5,24.5,0,0,0,993.47,808.4a24.55,24.55,0,0,0-1.93,3.661,23.963,23.963,0,0,0-1.293,3.929,25,25,0,0,0-.591,4.095c-.012.347-.048.691-.042,1.037l0,1.039.056,1.061.025.532.055.528.109,1.057.165,1.043.084.522.114.515c.077.344.138.689.224,1.03a29.992,29.992,0,0,0,1.312,3.992,28.264,28.264,0,0,0,1.91,3.734,29.311,29.311,0,0,0,12.536,11.054,34.916,34.916,0,0,0,33.071-1.854,39.45,39.45,0,0,0,12.448-12.024A40.717,40.717,0,0,0,1058,817.166c.036-.229.071-.46.1-.689Q1058.19,817.686,1058.222,818.912Z" transform="translate(-982.359 -789.95)" fill="#8a67f9"/>
      </g>
      <g id="Group_15" data-name="Group 15" transform="translate(21.238 1.844)">
        <path id="Path_12" data-name="Path 12" d="M1152.788,556.17c-11.792,4.2-18.957,12.208-22.742,23.007A33.066,33.066,0,0,1,1152.68,568.9s10.671-12.3,29.628-3.6C1173.479,558.972,1164.142,554.293,1152.788,556.17Z" transform="translate(-1130.045 -555.751)" fill="#8a67f9"/>
      </g>
      <g id="Group_16" data-name="Group 16" transform="translate(1.263 1.263)" opacity="0.6">
        <path id="Path_13" data-name="Path 13" d="M777.718,592.557A43.693,43.693,0,0,0,795.5,626.706a43.784,43.784,0,1,1,48.582-72.74,43.789,43.789,0,0,0-66.364,38.591Z" transform="translate(-774.295 -545.408)" fill="#fff"/>
      </g>
      <g id="Group_17" data-name="Group 17" transform="translate(0 0)">
        <path id="Path_14" data-name="Path 14" d="M796.808,612.993a45.069,45.069,0,1,1,1.148-.014C797.573,612.988,797.189,612.993,796.808,612.993Zm.057-87.559q-.541,0-1.083.013a42.516,42.516,0,1,0,43.558,41.448h0a42.517,42.517,0,0,0-42.475-41.461Z" transform="translate(-751.794 -522.907)" fill="#b400ff"/>
      </g>
      <g id="Group_18" data-name="Group 18" transform="translate(38.3 36.932)" opacity="0.6">
        <path id="Path_15" data-name="Path 15" d="M1447.592,1184.828l.1.27-.082-.069-.139-.115-.15-.1c-.1-.065-.2-.137-.292-.206s-.21-.116-.309-.176a2.219,2.219,0,0,0-.312-.161c-.108-.051-.207-.107-.315-.155-.223-.065-.422-.188-.651-.233l-.328-.1c-.113-.021-.223-.039-.336-.068-.053-.014-.11-.03-.167-.041l-.169-.02c-.115-.012-.229-.033-.341-.053-.115,0-.231-.009-.349-.015l-.175-.013c-.056,0-.13.006-.192.008a8.423,8.423,0,0,0-1.585.17,7.219,7.219,0,0,0-2.909,1.321,7.725,7.725,0,0,0-2.977,5.572c0,.275-.016.542-.012.823.025.3.047.594.066.892a2.751,2.751,0,0,0,.067.439l.076.439a5.79,5.79,0,0,0,.211.859,11.137,11.137,0,0,0,.571,1.536,10.569,10.569,0,0,1-1.052-1.252,10.771,10.771,0,0,1-1.514-3.194,5.722,5.722,0,0,1-.21-.859l-.076-.439a2.755,2.755,0,0,1-.067-.439c-.019-.3-.041-.594-.067-.892,0-.281.016-.548.012-.823a7.728,7.728,0,0,1,2.977-5.572,7.221,7.221,0,0,1,2.908-1.321,8.387,8.387,0,0,1,1.585-.17c.062,0,.136-.012.192-.008l.175.013c.118.006.234.012.349.015.113.021.226.042.342.054l.169.02c.057.01.113.027.167.04.113.03.223.048.336.069l.328.1c.229.044.427.167.651.232.108.048.207.1.314.155a2.218,2.218,0,0,1,.312.161c.1.06.2.119.309.176s.19.14.292.206l.151.1.139.115c.091.081.184.155.284.229s.173.17.264.254l.134.13.119.142a6.664,6.664,0,0,1,.865,1.239q.071.175.16.351l.09.175Z" transform="translate(-1433.904 -1180.659)" fill="#fff"/>
      </g>
      <g id="Group_19" data-name="Group 19" transform="translate(20.197 22.249)" opacity="0.6">
        <path id="Path_16" data-name="Path 16" d="M1111.556,945.171l-.056-1.061,0-1.039c-.006-.346.03-.69.042-1.037a25,25,0,0,1,.591-4.1,23.972,23.972,0,0,1,1.293-3.929,24.007,24.007,0,0,1,4.465-6.94,24.291,24.291,0,0,1,14.342-7.65l.513-.078.517-.054c.343-.029.684-.082,1.033-.091l1.034-.047c.334,0,.669,0,1,0a18.706,18.706,0,0,1,11.051,4.037,19.081,19.081,0,0,1,4.785,5.636,19.291,19.291,0,0,0-2.79-2.727,18.709,18.709,0,0,0-11.052-4.037c-.332-.01-.666,0-1,0l-1.034.046c-.349.009-.691.062-1.033.091l-.517.054-.513.078a24.338,24.338,0,0,0-18.806,14.59,23.947,23.947,0,0,0-1.293,3.929,25.056,25.056,0,0,0-.591,4.1c-.012.347-.048.691-.042,1.037l0,1.039.056,1.061.025.532.055.528.109,1.057.165,1.043.084.521.114.515c.076.344.138.689.224,1.03a29.991,29.991,0,0,0,1.312,3.992,29.01,29.01,0,0,0,1.715,3.414,26.789,26.789,0,0,1-1.8-2.589,28.24,28.24,0,0,1-1.909-3.734,30,30,0,0,1-1.312-3.992c-.085-.341-.147-.686-.224-1.03l-.113-.515-.084-.522-.165-1.043-.109-1.057-.055-.528Z" transform="translate(-1111.5 -919.151)" fill="#fff"/>
      </g>
      <g id="Group_20" data-name="Group 20" transform="translate(35.25 27.824)" opacity="0.6">
        <path id="Path_17" data-name="Path 17" d="M1414.8,1031.709l0-.713-.032-.692a25.987,25.987,0,0,0-2.858-10.605c-.218-.424-.45-.838-.691-1.249a25.828,25.828,0,0,1,5.545,14.764l.032.691,0,.713c.009.476-.032.95-.053,1.428a22.266,22.266,0,0,1-.4,2.833,21.53,21.53,0,0,1-20.332,17.1,18.851,18.851,0,0,1-5.878-.76,17.41,17.41,0,0,1-5.318-2.646,18.373,18.373,0,0,1-4.173-4.217,16.9,16.9,0,0,1-1.051-1.693,18.389,18.389,0,0,0,3.229,3,17.428,17.428,0,0,0,5.318,2.646,18.862,18.862,0,0,0,5.877.76,21.549,21.549,0,0,0,10.812-3.349,21.5,21.5,0,0,0,9.521-13.753,22.306,22.306,0,0,0,.4-2.833C1414.767,1032.66,1414.808,1032.185,1414.8,1031.709Z" transform="translate(-1379.586 -1018.45)" fill="#fff"/>
      </g>
      <g id="Group_21" data-name="Group 21" transform="translate(47.375 39.559)" opacity="0.6">
        <path id="Path_18" data-name="Path 18" d="M1600.562,1231.264c-.006-.13.009-.255,0-.379s-.024-.251-.033-.375a5.346,5.346,0,0,0-.152-.748c-.039-.132-.063-.265-.1-.391l-.137-.375-.063-.188-.09-.175q-.089-.175-.16-.351c-.17-.286-.336-.565-.526-.827.078.048.162.094.246.139.1.069.19.14.292.206l.15.1.139.115c.091.08.184.155.284.229s.173.17.264.254l.133.13.119.142a6.635,6.635,0,0,1,.865,1.239q.071.176.16.351l.09.175.064.188.137.375c.035.126.06.259.1.391a5.392,5.392,0,0,1,.152.748c.009.124.015.245.033.375s-.006.249,0,.379a5.952,5.952,0,0,1-4.334,5.292l-.056.019a.872.872,0,0,0-.35.21,7.451,7.451,0,0,1-1.515-.143.928.928,0,0,1-.1-1.794l.056-.019A5.952,5.952,0,0,0,1600.562,1231.264Z" transform="translate(-1595.529 -1227.455)" fill="#fff"/>
      </g>
      <g id="Group_22" data-name="Group 22" transform="translate(31.047 29.264)" opacity="0.6">
        <path id="Path_19" data-name="Path 19" d="M1306.73,1060.056c-.014.518-.039,1.045-.027,1.554l.111,1.485a6.169,6.169,0,0,0,.1.737l.131.733a12.313,12.313,0,0,0,.353,1.45,17.918,17.918,0,0,0,2.557,5.366,18.325,18.325,0,0,0,1.89,2.252,18.346,18.346,0,0,1-3.857-3.979,17.918,17.918,0,0,1-2.557-5.366,12.306,12.306,0,0,1-.353-1.45l-.13-.734a6.158,6.158,0,0,1-.1-.737l-.111-1.486c-.013-.509.013-1.036.026-1.554a14.891,14.891,0,0,1,1.718-5.99,15.8,15.8,0,0,1,9.518-7.675,14.929,14.929,0,0,1,3.114-.542c.136-.006.26-.024.4-.025h.423l.841.017c.279.026.561.057.84.095l.419.058c.14.023.277.058.413.088.277.061.551.128.824.2s.537.176.8.27a6.182,6.182,0,0,1,.783.318c.254.118.512.239.761.366s.484.287.724.432l.358.222c.114.077.223.166.338.249l.661.516c.209.181.412.374.612.568l.3.291.152.171a.694.694,0,0,0-.093-.069l-.357-.222c-.24-.145-.478-.3-.724-.432s-.506-.248-.761-.366a6.239,6.239,0,0,0-.783-.318c-.266-.094-.532-.191-.8-.27s-.548-.137-.825-.2c-.137-.029-.273-.064-.413-.087l-.419-.058c-.279-.037-.561-.069-.84-.095l-.841-.017h-.423c-.139,0-.262.018-.4.025a14.917,14.917,0,0,0-3.115.542,15.8,15.8,0,0,0-9.518,7.675A14.884,14.884,0,0,0,1306.73,1060.056Z" transform="translate(-1304.734 -1044.097)" fill="#fff"/>
      </g>
      <g id="Group_23" data-name="Group 23" transform="translate(12.946 14.994)" opacity="0.6">
        <path id="Path_20" data-name="Path 20" d="M989.444,841.694a35.158,35.158,0,0,0,5.808,7.144c-.32-.261-.631-.526-.943-.8a34.7,34.7,0,0,1-9.251-12.807,36.7,36.7,0,0,1-1.661-5.048c-.105-.429-.19-.865-.284-1.295l-.14-.651-.1-.651-.207-1.309-.136-1.313-.067-.655-.034-.659-.065-1.315,0-1.344c0-.447.037-.894.055-1.342a32.478,32.478,0,0,1,.768-5.316,31.675,31.675,0,0,1,1.678-5.11,31.273,31.273,0,0,1,5.789-9,31.535,31.535,0,0,1,18.62-9.925l.666-.1.667-.073c.446-.038.891-.1,1.338-.116s.892-.049,1.345-.063c.459,0,.92-.005,1.379.007a26.009,26.009,0,0,1,15.331,5.6,25.391,25.391,0,0,1,1.966,1.727,26.008,26.008,0,0,0-15.331-5.6c-.459-.012-.92,0-1.379-.007-.452.014-.9.043-1.345.063s-.892.078-1.338.116l-.667.073-.666.1a31.534,31.534,0,0,0-18.62,9.925,31.274,31.274,0,0,0-5.789,9,31.7,31.7,0,0,0-1.678,5.11,32.5,32.5,0,0,0-.767,5.316c-.018.447-.058.9-.055,1.342l0,1.343.065,1.315.034.659.067.655.136,1.313.207,1.309.1.651.141.65c.093.43.178.866.284,1.3a36.727,36.727,0,0,0,1.661,5.048A35.46,35.46,0,0,0,989.444,841.694Z" transform="translate(-982.359 -789.95)" fill="#fff"/>
      </g>
      <g id="Group_24" data-name="Group 24" transform="translate(42.97 27.776)" opacity="0.6">
        <path id="Path_21" data-name="Path 21" d="M1537.211,1023.946a18.748,18.748,0,0,1,2.06,7.645l.024.5v.479c.011.317-.026.634-.035.951a14.787,14.787,0,0,1-.267,1.876,14.15,14.15,0,0,1-1.258,3.564,14.494,14.494,0,0,1-5.061,5.558,14.262,14.262,0,0,1-7.168,2.217,11.536,11.536,0,0,1-3.521-.454,10.14,10.14,0,0,1-3.164-1.579,10.86,10.86,0,0,1-1.731-1.564,9.837,9.837,0,0,0,2.929,1.416,11.531,11.531,0,0,0,3.521.454,14.257,14.257,0,0,0,7.168-2.217,14.492,14.492,0,0,0,5.061-5.558,14.138,14.138,0,0,0,1.258-3.564,14.743,14.743,0,0,0,.267-1.877c.01-.317.046-.634.036-.951v-.479l-.024-.5a18.744,18.744,0,0,0-2.06-7.645,18.988,18.988,0,0,0-3.385-4.63l.308.241A19.059,19.059,0,0,1,1537.211,1023.946Z" transform="translate(-1517.09 -1017.59)" fill="#fff"/>
      </g>
      <g id="Group_25" data-name="Group 25" transform="translate(12.058 14.107)">
        <path id="Path_22" data-name="Path 22" d="M1006.218,843.749a45.555,45.555,0,0,1-8.3-.786,43.906,43.906,0,0,1-5.165-1.326l-.608-.194-.035-.012-.615-.225-.438-.161c-.269-.1-.538-.2-.805-.3l-.567-.238c-.62-.259-1.261-.526-1.889-.837-.685-.31-1.345-.665-1.985-1.008l-.388-.208c-.27-.151-.522-.3-.775-.452l-.388-.23-.572-.342-.032-.02-.551-.362a36.506,36.506,0,0,1-4.3-3.255,35.582,35.582,0,0,1-9.484-13.126,37.767,37.767,0,0,1-1.706-5.181c-.076-.309-.141-.615-.2-.92q-.042-.2-.086-.4l-.141-.652c0-.015-.006-.031-.009-.046l-.312-1.963c0-.016,0-.031-.006-.047l-.2-1.97c0-.015,0-.029,0-.044l-.1-1.976c0-.015,0-.03,0-.046l0-1.343c0-.319.016-.635.034-.941.008-.145.016-.29.023-.435a33.5,33.5,0,0,1,.789-5.479,32.684,32.684,0,0,1,1.726-5.256,32.157,32.157,0,0,1,5.951-9.253,32.641,32.641,0,0,1,19.148-10.205l.663-.1.035,0,.667-.073c.17-.015.318-.031.467-.046.3-.032.615-.065.939-.075l.486-.024c.285-.015.57-.03.859-.039h.034c.163,0,.326,0,.49,0,.3,0,.6,0,.907.007a26.9,26.9,0,0,1,15.858,5.794,27.289,27.289,0,0,1,7.223,8.756,26.941,26.941,0,0,1,2.957,10.969l.032.7c0,.012,0,.025,0,.037l0,.713c.007.357-.014.716-.033,1.063-.008.135-.015.271-.021.407,0,.013,0,.026,0,.039a22.422,22.422,0,0,1-10.33,17.256,22.281,22.281,0,0,1-11.261,3.488,19.609,19.609,0,0,1-6.161-.8,18.22,18.22,0,0,1-5.583-2.777,19.218,19.218,0,0,1-4.376-4.421,18.738,18.738,0,0,1-2.686-5.634l-.057-.2a11.048,11.048,0,0,1-.32-1.359l-.127-.711c-.013-.078-.023-.138-.034-.2a4.76,4.76,0,0,1-.083-.643l-.11-1.471q0-.022,0-.044c-.01-.415,0-.835.016-1.241l.011-.359c0-.012,0-.024,0-.036a15.807,15.807,0,0,1,1.821-6.349,16.635,16.635,0,0,1,10.056-8.11,15.811,15.811,0,0,1,3.3-.574c.058,0,.1-.006.142-.01.1-.009.2-.016.31-.017h.43l.856.018.063,0c.291.027.585.06.876.1l.422.058c.136.022.246.047.355.071l.121.027c.294.065.577.134.861.207l.028.008c.261.076.509.164.749.249l.1.036a7.135,7.135,0,0,1,.873.355c.26.121.524.245.778.375l.026.014c.189.1.374.217.558.33l.562.346.028.018c.084.057.166.118.247.18l.115.087.025.019.661.516.036.029c.228.2.445.405.647.6l.3.3.041.042.277.31c.2.23.384.445.564.667.013.016.025.032.037.049l.716,1.036c.012.018.024.036.034.055l.306.541c.1.186.208.372.307.559q.014.026.026.053c.116.26.227.52.334.78l.016.037c.052.123.1.245.151.371,0,.012.008.024.012.036l.125.387c.087.271.17.538.247.8,0,.017.009.034.013.05.062.274.118.548.17.818l.076.4c0,.026.008.051.011.077l.113,1.2c0,.02,0,.039,0,.059.007.29,0,.58,0,.836a11.526,11.526,0,0,1-.161,1.742c0,.015-.005.031-.008.046-.048.234-.113.541-.191.847-.056.222-.126.426-.194.622-.026.073-.051.147-.075.22a10.47,10.47,0,0,1-1.743,3.072,9.953,9.953,0,0,1-2.594,2.2,8.8,8.8,0,0,1-6.21,1.1,1.816,1.816,0,0,1-.2-3.508l.04-.014a5.062,5.062,0,0,0,3.734-4.443c0-.073,0-.144,0-.215,0-.03,0-.06,0-.09-.014-.11-.022-.216-.029-.322l0-.028c-.009-.053-.017-.1-.025-.156a2.839,2.839,0,0,0-.091-.433c-.03-.1-.051-.189-.071-.275-.009-.038-.018-.076-.027-.114l-.173-.484-.06-.117q-.093-.184-.167-.361a5.646,5.646,0,0,0-.712-1.024c-.013-.013-.025-.027-.037-.042l-.089-.107-.1-.1c-.069-.063-.148-.14-.227-.217-.1-.074-.189-.149-.279-.228l-.092-.076-.112-.074c-.075-.048-.157-.107-.239-.166l-.036-.026c-.1-.055-.2-.112-.294-.169l-.03-.019a1.573,1.573,0,0,0-.174-.086l-.026-.012c-.057-.027-.113-.055-.168-.083l-.09-.045c-.115-.038-.217-.081-.3-.117a1.436,1.436,0,0,0-.2-.075.847.847,0,0,1-.1-.025l-.275-.087c-.115-.021-.229-.042-.345-.073l-.043-.011-.04-.01-.129-.015c-.108-.011-.221-.03-.334-.05-.094,0-.188-.008-.284-.013l-.04,0-.143-.011h-.016c-.04,0-.081.005-.118.006a7.469,7.469,0,0,0-1.417.149,6.349,6.349,0,0,0-2.557,1.158,6.837,6.837,0,0,0-2.63,4.893c0,.136,0,.271-.007.406,0,.115-.007.231-.006.349.024.293.046.583.065.877,0,.017,0,.035,0,.052s.014.086.024.133.022.11.031.166l.075.433c0,.017.005.033.007.05a3.267,3.267,0,0,0,.121.5c.022.075.044.149.064.224a9.826,9.826,0,0,0,1.384,2.917,10.213,10.213,0,0,0,2.3,2.308,9.231,9.231,0,0,0,2.883,1.442,10.625,10.625,0,0,0,3.263.421,13.334,13.334,0,0,0,6.709-2.078,13.528,13.528,0,0,0,4.748-5.215,13.287,13.287,0,0,0,1.177-3.332,13.656,13.656,0,0,0,.251-1.759c0-.114.011-.227.018-.341.012-.187.022-.363.017-.523,0-.01,0-.02,0-.03v-.458l-.023-.478a17.94,17.94,0,0,0-1.962-7.28,18.237,18.237,0,0,0-4.807-5.829,17.82,17.82,0,0,0-10.526-3.844c-.188-.006-.38,0-.571,0h-.386l-1.01.045c-.209.005-.409.027-.621.05-.126.014-.251.027-.376.038l-.479.051-.493.075a23.256,23.256,0,0,0-13.818,7.37,23.127,23.127,0,0,0-4.3,6.69,23.17,23.17,0,0,0-1.245,3.783,24.227,24.227,0,0,0-.569,3.948c0,.111-.011.244-.019.377-.013.208-.024.405-.021.592l0,1.031.079,1.548.159,1.536.241,1.514.108.49c.03.133.057.268.086.4.041.2.082.4.132.6a29.3,29.3,0,0,0,1.272,3.87,27.008,27.008,0,0,0,1.842,3.6,28.6,28.6,0,0,0,12.161,10.72,34.03,34.03,0,0,0,32.232-1.81,38.613,38.613,0,0,0,12.168-11.754,39.97,39.97,0,0,0,6.14-15.834c.034-.219.068-.44.094-.657a.887.887,0,0,1,1.766.034c.067.837.111,1.673.131,2.484h0a44.61,44.61,0,0,1-10.354,29.722.88.88,0,0,1-.124.121,46.511,46.511,0,0,1-5.142,3.606,42.991,42.991,0,0,1-20.112,6.265Q1007.35,843.749,1006.218,843.749ZM992.7,839.758l.6.192a41.827,41.827,0,0,0,15.065,1.965,41.22,41.22,0,0,0,19.285-6.01,44.729,44.729,0,0,0,4.878-3.414,42.813,42.813,0,0,0,9.68-23.062,41.876,41.876,0,0,1-4.67,9.5,40.4,40.4,0,0,1-12.73,12.294,35.8,35.8,0,0,1-33.91,1.9,30.382,30.382,0,0,1-12.914-11.393,28.773,28.773,0,0,1-1.967-3.844,31.073,31.073,0,0,1-1.357-4.124c-.057-.228-.1-.453-.15-.678-.026-.126-.052-.252-.08-.378l-.114-.517c0-.016-.007-.033-.009-.05l-.249-1.568c0-.016,0-.031-.006-.047l-.164-1.585c0-.016,0-.033,0-.049l-.081-1.588c0-.017,0-.033,0-.05l0-1.039c0-.236.01-.477.024-.709.007-.118.014-.237.018-.355a26.038,26.038,0,0,1,.613-4.263A24.966,24.966,0,0,1,975.8,796.8a24.895,24.895,0,0,1,4.627-7.192,25.03,25.03,0,0,1,14.869-7.929l.508-.077.04-.005.517-.054c.129-.011.24-.023.352-.036.239-.026.487-.053.752-.06l1.017-.046h.049c.129,0,.257,0,.386,0,.211,0,.421,0,.63,0a19.6,19.6,0,0,1,11.577,4.229,20.024,20.024,0,0,1,5.279,6.4,19.729,19.729,0,0,1,2.158,8.008l.024.5c0,.014,0,.028,0,.043v.465c.007.239-.006.461-.02.677-.006.105-.013.211-.017.316,0,.018,0,.036,0,.054a15.688,15.688,0,0,1-.285,1.99,15.026,15.026,0,0,1-1.33,3.767,15.314,15.314,0,0,1-5.376,5.908,15.118,15.118,0,0,1-7.616,2.356,12.388,12.388,0,0,1-3.8-.49,10.979,10.979,0,0,1-3.432-1.71,11.986,11.986,0,0,1-2.7-2.717,11.62,11.62,0,0,1-1.646-3.463c-.022-.079-.041-.143-.059-.207a4.788,4.788,0,0,1-.178-.771l-.072-.417c-.007-.04-.014-.073-.021-.107a2.474,2.474,0,0,1-.059-.448c-.018-.285-.04-.568-.064-.853,0-.02,0-.041,0-.062,0-.155,0-.306.006-.456,0-.122.007-.244.006-.367,0-.023,0-.047,0-.07a8.612,8.612,0,0,1,3.326-6.22,8.122,8.122,0,0,1,3.263-1.483,9.172,9.172,0,0,1,1.745-.188l.029,0a1.607,1.607,0,0,1,.256,0l.172.013c.1,0,.2.01.3.013a.866.866,0,0,1,.138.014c.09.017.18.034.272.044l.18.021.059.009c.063.011.126.027.187.043l.035.009c.081.021.15.033.22.045l.061.011a.861.861,0,0,1,.108.027l.287.091a2.872,2.872,0,0,1,.491.169,1.656,1.656,0,0,0,.181.071.856.856,0,0,1,.11.04c.076.033.148.07.221.107.037.019.073.038.111.056a3.021,3.021,0,0,1,.406.212c.083.05.171.1.259.147a.9.9,0,0,1,.093.058l.092.067c.053.039.107.079.164.115l.162.108a.894.894,0,0,1,.075.055l.139.115.024.021c.072.064.147.123.226.182a.9.9,0,0,1,.092.079c.078.077.158.156.241.233l.151.146a.889.889,0,0,1,.062.067l.1.122a7.6,7.6,0,0,1,.966,1.379.876.876,0,0,1,.058.118c.038.094.081.189.129.283l.087.17a.9.9,0,0,1,.051.12l.194.546q.011.031.02.063c.02.072.038.145.055.22.012.054.025.108.041.162a4.434,4.434,0,0,1,.146.672c.009.056.018.112.028.17.005.03.009.061.012.091l.005.08c.005.078.01.156.021.237,0,.02,0,.039.006.059.007.1.006.19,0,.287,0,.037,0,.075,0,.113,0,.018,0,.036,0,.053a6.837,6.837,0,0,1-4.948,6.125l-.04.014c-.027.009-.04.018-.045.04a.042.042,0,0,0,.035.045,7.005,7.005,0,0,0,4.947-.888,8.173,8.173,0,0,0,2.134-1.8,8.652,8.652,0,0,0,1.433-2.52c.019-.058.047-.141.076-.223.058-.168.113-.326.151-.476.067-.263.124-.534.168-.745a10.1,10.1,0,0,0,.139-1.467c0-.265.01-.509,0-.752l-.105-1.12-.068-.359c-.047-.241-.1-.488-.152-.735s-.146-.484-.224-.729l-.118-.366c-.035-.094-.074-.184-.113-.276l-.02-.047c-.1-.243-.2-.477-.3-.712-.089-.166-.182-.332-.275-.5l-.284-.5-.212-.317-.447-.636c-.162-.2-.33-.393-.5-.59l-.247-.277-.277-.271c-.174-.168-.365-.35-.555-.516l-.631-.493c-.045-.033-.09-.067-.134-.1s-.1-.077-.153-.113l-.537-.331c-.158-.1-.316-.194-.478-.283-.235-.12-.478-.233-.717-.344l-.026-.013a5.45,5.45,0,0,0-.671-.271l-.112-.04c-.221-.079-.43-.153-.638-.214-.26-.066-.519-.13-.781-.188l-.138-.031c-.076-.017-.152-.035-.229-.048l-.395-.054c-.253-.034-.512-.063-.769-.087l-1.217-.018c-.052,0-.107.006-.162.01s-.126.011-.192.014a14.021,14.021,0,0,0-2.914.509,14.851,14.851,0,0,0-8.977,7.239,14.024,14.024,0,0,0-1.615,5.616l-.011.348c-.012.391-.024.76-.016,1.119l.109,1.463c0,.011,0,.022,0,.034a3.29,3.29,0,0,0,.057.416c.013.072.025.143.036.214l.128.717a9.647,9.647,0,0,0,.278,1.167l.057.2a16.943,16.943,0,0,0,2.426,5.091,17.43,17.43,0,0,0,3.97,4.011,16.456,16.456,0,0,0,5.044,2.513,18.109,18.109,0,0,0,5.607.725,20.633,20.633,0,0,0,19.486-16.392,21.044,21.044,0,0,0,.387-2.714c.006-.137.014-.273.021-.409.019-.329.036-.64.03-.943l0-.707-.031-.673a25.152,25.152,0,0,0-2.76-10.237,25.5,25.5,0,0,0-6.75-8.183,25.12,25.12,0,0,0-14.807-5.411c-.281-.007-.566-.007-.851-.006h-.489c-.271.009-.538.023-.805.037l-.511.025c-.271.009-.538.037-.821.067-.161.017-.321.034-.482.047l-.628.069-.649.1a30.842,30.842,0,0,0-18.094,9.644,30.4,30.4,0,0,0-5.629,8.75,30.944,30.944,0,0,0-1.631,4.965,31.662,31.662,0,0,0-.746,5.168c-.005.136-.014.291-.023.445-.016.292-.032.568-.031.838l0,1.327.1,1.927.2,1.921.3,1.911.135.627c.03.136.059.275.088.414.06.286.12.573.19.856a35.968,35.968,0,0,0,1.619,4.921A34.838,34.838,0,0,0,984.07,835.56l.544.357.549.329c.127.074.26.154.394.234.237.141.474.283.715.417l.378.2c.646.347,1.255.674,1.889.96l.029.014c.581.288,1.173.535,1.8.8l.553.232c.232.09.488.183.745.277l.443.163Zm7.7-41.9h0Z" transform="translate(-966.553 -774.145)" fill="#000072"/>
      </g>
      <g id="Group_26" data-name="Group 26" transform="translate(37.899 5.089)" opacity="0.3">
        <path id="Path_23" data-name="Path 23" d="M1474.486,651.176a43.82,43.82,0,0,1-1.44,12.319,40.133,40.133,0,0,1-10.9,12.743,37.745,37.745,0,0,1-20.746,7.484,44.011,44.011,0,0,1-14.639-1.69c35.5,7.714,61.6-48.039,22.3-68.442l2.088-.052a43.769,43.769,0,0,1,23.2,35.2c.03.372.054.747.075,1.125v0q.03.492.042.984C1474.48,650.96,1474.483,651.069,1474.486,651.176Z" transform="translate(-1426.763 -613.537)" fill="#000072"/>
      </g>
      <g id="Group_27" data-name="Group 27" transform="translate(8.71 56.473)" opacity="0.3">
        <path id="Path_24" data-name="Path 24" d="M981.984,1528.691a41.419,41.419,0,0,1-75.069,13c.523-.519.82-.811.82-.811s7.518,12.244,28.388,11.894c0,0,9.061.731,7-4.716a68.656,68.656,0,0,0,7.617-.571,47.336,47.336,0,0,0,20.746-7.483A34.986,34.986,0,0,0,981.984,1528.691Z" transform="translate(-906.915 -1528.691)" fill="#000072"/>
      </g>
    </g>
    <g id="Group_292" data-name="Group 292" transform="translate(753.398 524.511)">
      <circle id="Ellipse_23" data-name="Ellipse 23" cx="43.622" cy="43.622" r="43.622" transform="translate(0)" fill="#f0b90b"/>
      <path id="Path_404" data-name="Path 404" d="M69.675,38.943,63,45.664,56.28,38.943,63,32.222ZM85.943,22.675l11.5,11.5,6.721-6.721L92.665,16,85.943,9.28,67.774,27.448l6.721,6.721Zm22.942,9.547-6.674,6.721,6.721,6.721,6.674-6.721ZM85.943,55.211l-11.494-11.5-6.674,6.721L85.943,68.606l18.214-18.214-6.721-6.674Zm0-9.547,6.721-6.721-6.721-6.721-6.721,6.721Z" transform="translate(-42.321 4.679)" fill="#fffdfa"/>
      <circle id="Ellipse_24" data-name="Ellipse 24" cx="41.365" cy="41.365" r="41.365" transform="translate(2.256 2.256)" fill="none" stroke="#191326" stroke-width="3" opacity="0.1"/>
    </g>
    <g id="Group_53" data-name="Group 53" transform="translate(811.368 551.16)">
      <g id="Group_29" data-name="Group 29" transform="translate(15.638 69.361)">
        <path id="Path_25" data-name="Path 25" d="M2113.23,2266.556l-12.3,52.548a3.788,3.788,0,0,1-4.553,2.826l-2.147-.5a3.789,3.789,0,0,1-2.826-4.553l12.3-52.548a3.788,3.788,0,0,1,4.553-2.825l2.147.5A3.788,3.788,0,0,1,2113.23,2266.556Z" transform="translate(-2091.306 -2261.4)" fill="#fff"/>
      </g>
      <g id="Group_30" data-name="Group 30" transform="translate(14.602 68.325)">
        <path id="Path_26" data-name="Path 26" d="M2079.832,2305.661a4.872,4.872,0,0,1-1.109-.128l-2.147-.5a4.824,4.824,0,0,1-3.6-5.8l12.3-52.547a4.828,4.828,0,0,1,5.8-3.6l2.147.5a4.824,4.824,0,0,1,3.6,5.8l-12.3,52.548a4.829,4.829,0,0,1-4.688,3.726Zm10.141-60.63a2.759,2.759,0,0,0-2.681,2.126l-12.3,52.548a2.752,2.752,0,0,0,2.054,3.308l2.147.5h0a2.754,2.754,0,0,0,3.309-2.053l12.3-52.548a2.754,2.754,0,0,0-2.054-3.309l-2.147-.5A2.776,2.776,0,0,0,2089.973,2245.031Z" transform="translate(-2072.849 -2242.96)" fill="#b400ff"/>
      </g>
      <g id="Group_31" data-name="Group 31" transform="translate(17.057 69.301)" opacity="0.3">
        <path id="Path_27" data-name="Path 27" d="M2135.01,2265.069l-12.3,52.548a3.789,3.789,0,0,1-4.552,2.826l-.328-.077a3.73,3.73,0,0,1-1.251-.547,3.783,3.783,0,0,0,3.188-2.891l8.416-35.96a2.645,2.645,0,0,0-1.256-2.883,28.818,28.818,0,0,1-2.676-1.78l3.052-13.039a3.782,3.782,0,0,1,3.188-2.891c.107-.016.217-.026.326-.032a.066.066,0,0,1,.022,0c.043,0,.085,0,.128,0,.106,0,.21,0,.316.012.043,0,.085.006.129.014s.066.006.1.011c.058.008.116.018.173.029s.115.022.172.035l.327.076A3.789,3.789,0,0,1,2135.01,2265.069Z" transform="translate(-2116.58 -2260.34)" fill="#000072"/>
      </g>
      <g id="Group_32" data-name="Group 32" transform="translate(1.252 1.276)">
        <path id="Path_28" data-name="Path 28" d="M1909.543,1104.189a39.015,39.015,0,0,1-72.274-29.167q.622-1.781,1.429-3.536a38.839,38.839,0,0,1,13.7-16.066h0a39.014,39.014,0,0,1,58,46.771q-.184.464-.383.93v0q-.17.405-.354.8C1909.623,1104.014,1909.582,1104.1,1909.543,1104.189Z" transform="translate(-1835.096 -1048.813)" fill="#f9331e"/>
      </g>
      <g id="Group_33" data-name="Group 33" transform="translate(51.636 27.122)">
        <path id="Path_29" data-name="Path 29" d="M2751.089,1545.321c6.583-15.833-6.9-35.46-18.668-21.828l1.756-2.961c-2.355-15.927,16.924-15.492,25.875,3.417C2760.052,1523.948,2761.517,1534.589,2751.089,1545.321Z" transform="translate(-2732.421 -1509.137)" fill="#fff"/>
      </g>
      <g id="Group_34" data-name="Group 34" transform="translate(29.979 51.811)">
        <path id="Path_30" data-name="Path 30" d="M2346.714,1962.276c10.463,2.3,19-7.942,19-7.942a23.841,23.841,0,0,0,9.883-5.5s-.386,11.612-8.734,18.545A29.411,29.411,0,0,1,2346.714,1962.276Z" transform="translate(-2346.714 -1948.839)" fill="#fff"/>
      </g>
      <g id="Group_35" data-name="Group 35" transform="translate(4.532 55.935)">
        <path id="Path_31" data-name="Path 31" d="M1936.7,2044.95a39.079,39.079,0,0,1-31.469-7.55c-.054-.1-.1-.185-.14-.262-.234-.122-.463-.254-.687-.4a46.777,46.777,0,0,1-10.891-14.452c.168.24,6.815,9.615,18.581,12.241l4.691,3.342,18.163,5.405Z" transform="translate(-1893.511 -2022.288)" fill="#fff"/>
      </g>
      <g id="Group_36" data-name="Group 36" transform="translate(17.189 42.486)">
        <path id="Path_32" data-name="Path 32" d="M2118.919,1782.759c2.149,4.753,6.156,7.974,13.559,8.393l4.075,3.876a18.009,18.009,0,0,1-15.59-2.137A69.408,69.408,0,0,1,2118.919,1782.759Z" transform="translate(-2118.919 -1782.759)" fill="#fff"/>
      </g>
      <g id="Group_37" data-name="Group 37" transform="translate(24.349 19.579)">
        <path id="Path_33" data-name="Path 33" d="M2262.978,1374.924s-5.305,2.31-8.569,10.167c0,0-4.246,4.344-4.507,9.382-3.867-3.72-5.43-8.391.347-16.094C2250.248,1378.38,2256.827,1374,2262.978,1374.924Z" transform="translate(-2246.443 -1374.797)" fill="#fff"/>
      </g>
      <g id="Group_38" data-name="Group 38" transform="translate(3.144 7.882)">
        <path id="Path_34" data-name="Path 34" d="M1877.749,1209.092c-5.477-5.432-10.187-15.1-8.69-23.023q.622-1.782,1.429-3.536a38.838,38.838,0,0,1,13.7-16.066h0a35.349,35.349,0,0,0-6.526,26.057S1874.273,1203.056,1877.749,1209.092Z" transform="translate(-1868.777 -1166.467)" fill="#fff"/>
      </g>
      <g id="Group_39" data-name="Group 39" transform="translate(10.721 13.184)">
        <path id="Path_35" data-name="Path 35" d="M2068.7,1304.368a38.852,38.852,0,0,1-19.577,19.3,40.559,40.559,0,0,1-5.424.844,37.573,37.573,0,0,1-18.165-2.842,38.625,38.625,0,0,1-7.987-4.636,37.828,37.828,0,0,1-3.524-3.02l-.418-.4-.4-.422c-.267-.283-.538-.559-.8-.845-.509-.589-1.031-1.164-1.506-1.784-.495-.6-.94-1.241-1.4-1.875-.221-.32-.428-.65-.644-.977l-.319-.493-.3-.506a32.058,32.058,0,0,1-2.106-4.2,30.92,30.92,0,0,1-2.358-13.881,32.7,32.7,0,0,1,.658-4.69c.085-.385.188-.767.283-1.147l.144-.575.172-.562.35-1.128.408-1.1.2-.55.232-.541.465-1.077.53-1.073c.174-.358.382-.7.572-1.051a28.9,28.9,0,0,1,2.705-3.948,28.219,28.219,0,0,1,3.353-3.426,27.88,27.88,0,0,1,8.17-4.918,28.1,28.1,0,0,1,18.794-.61l.572.182.562.2c.371.146.753.269,1.115.434s.733.312,1.1.479c.365.183.738.358,1.1.548a23.18,23.18,0,0,1,10.054,10.512,23.422,23.422,0,0,1,2.254,9.521,23.163,23.163,0,0,1-1.887,9.6l-.247.565-.278.572c-.18.384-.4.747-.6,1.121a19.861,19.861,0,0,1-1.437,2.106,19.187,19.187,0,0,1-22.987,5.674,16.811,16.811,0,0,1-4.4-2.92,15.524,15.524,0,0,1-3.211-4.209,16.375,16.375,0,0,1-1.678-5.013,15.968,15.968,0,0,1,.067-5.3,10.975,10.975,0,0,1,.289-1.3l.184-.638a5.47,5.47,0,0,1,.207-.631l.5-1.231c.19-.412.418-.823.633-1.232a13.267,13.267,0,0,1,3.731-4.114,14.079,14.079,0,0,1,10.63-2.392,13.3,13.3,0,0,1,2.7.792c.111.048.218.083.329.137l.338.168.665.345c.213.13.426.266.634.406l.312.211c.1.073.2.156.3.233.2.158.39.319.581.483s.36.352.536.532a5.563,5.563,0,0,1,.5.562c.157.195.315.392.464.592s.274.42.409.63l.2.318c.061.106.113.22.172.332l.325.673c.1.227.182.461.266.695l.123.35.1.357c.063.241.125.479.179.719l.114.729.049.365.022.367c.012.244.027.489.034.73-.009.246-.022.489-.039.731-.007.122-.012.241-.025.363l-.053.359c-.036.241-.073.48-.115.716s-.117.468-.18.7l-.1.347-.125.334-.255.666c-.1.216-.208.427-.316.635a9.637,9.637,0,0,1-.762,1.242c-.151.195-.3.388-.462.573s-.341.354-.511.528a8.556,8.556,0,0,1-2.366,1.6,8.1,8.1,0,0,1-2.669.667,7.066,7.066,0,0,1-4.856-1.4.827.827,0,0,1,.625-1.474l.052.007a5.3,5.3,0,0,0,5.547-2.526c.046-.106.107-.2.149-.3s.08-.21.121-.313a4.83,4.83,0,0,0,.173-.658c.021-.121.054-.236.075-.352l.039-.354.023-.176,0-.176q0-.175.011-.344a5.928,5.928,0,0,0-.2-1.331l-.039-.16-.056-.156c-.04-.1-.076-.206-.111-.307-.05-.1-.1-.2-.137-.3l-.066-.146-.081-.139c-.056-.093-.1-.187-.152-.28s-.122-.175-.178-.262a1.975,1.975,0,0,0-.186-.251c-.066-.083-.123-.167-.191-.248-.153-.14-.263-.316-.429-.442l-.221-.212c-.082-.061-.163-.119-.242-.187-.038-.032-.076-.067-.118-.1l-.127-.082c-.088-.055-.17-.116-.252-.177s-.181-.1-.274-.149l-.135-.08c-.043-.026-.106-.046-.157-.07a7.485,7.485,0,0,0-1.334-.488,6.435,6.435,0,0,0-2.845-.088,6.884,6.884,0,0,0-4.573,3.284c-.105.221-.226.427-.333.653-.1.249-.2.493-.3.74a2.485,2.485,0,0,0-.119.378l-.112.381a5.1,5.1,0,0,0-.169.77,9.6,9.6,0,0,0-.046,3.15,9.928,9.928,0,0,0,1.01,2.995,9.041,9.041,0,0,0,1.909,2.507,10.287,10.287,0,0,0,2.637,1.748,12.7,12.7,0,0,0,6.6,1.048,12.92,12.92,0,0,0,6.234-2.453,12.629,12.629,0,0,0,2.408-2.355,13.161,13.161,0,0,0,.952-1.4c.133-.25.287-.489.4-.746l.189-.383.177-.409a16.714,16.714,0,0,0,1.361-6.924,16.975,16.975,0,0,0-1.626-6.874,16.671,16.671,0,0,0-7.248-7.576c-.261-.138-.532-.263-.8-.4l-.846-.37c-.283-.13-.577-.223-.862-.334l-.434-.16-.441-.14a21.835,21.835,0,0,0-17.794,2.1,21.9,21.9,0,0,0-2.984,2.168,21.333,21.333,0,0,0-2.58,2.633,22.276,22.276,0,0,0-2.084,3.042c-.146.272-.31.533-.442.813l-.412.829-.373.87-.189.435-.164.444-.329.888-.279.9-.138.45-.112.457c-.074.305-.161.605-.227.912a26.693,26.693,0,0,0-.521,3.708,25.222,25.222,0,0,0,.057,3.737,26.124,26.124,0,0,0,5.675,13.772,31.116,31.116,0,0,0,27.173,11.53,35.156,35.156,0,0,0,14.685-4.716,36.286,36.286,0,0,0,11.388-10.474c.119-.169.238-.34.35-.512Q2069.157,1303.375,2068.7,1304.368Z" transform="translate(-2003.722 -1260.9)" fill="#e8344a"/>
      </g>
      <g id="Group_40" data-name="Group 40" transform="translate(29.022 5.417)">
        <path id="Path_36" data-name="Path 36" d="M2356.9,1122.833c-11.08-1.285-19.962,2.3-27.237,9.448a29.467,29.467,0,0,1,22.142.689s13.374-5.638,25.107,8.778C2372.346,1133.215,2366.72,1125.8,2356.9,1122.833Z" transform="translate(-2329.666 -1122.576)" fill="#fff"/>
      </g>
      <g id="Group_41" data-name="Group 41" transform="translate(1.252 1.275)" opacity="0.6">
        <path id="Path_37" data-name="Path 37" d="M1840.522,1074.645a38.937,38.937,0,0,0,.782,34.3,39.019,39.019,0,1,1,67.467-39.047,39.024,39.024,0,0,0-68.249,4.745Z" transform="translate(-1835.093 -1048.806)" fill="#fff"/>
      </g>
      <g id="Group_42" data-name="Group 42" transform="translate(0 0)">
        <path id="Path_38" data-name="Path 38" d="M1853,1106.668a40.277,40.277,0,1,1,36.631-23.4A40.036,40.036,0,0,1,1853,1106.668Zm.082-78.048a37.791,37.791,0,1,0,15.8,3.5A37.76,37.76,0,0,0,1853.086,1028.621Zm35.4,54.123h0Z" transform="translate(-1812.789 -1026.093)" fill="#b400ff"/>
      </g>
      <g id="Group_43" data-name="Group 43" transform="translate(34.117 33.417)" opacity="0.6">
        <path id="Path_39" data-name="Path 39" d="M2433.676,1627.709l-.028.254-.038-.087-.066-.146-.081-.139c-.056-.093-.1-.187-.152-.28s-.122-.175-.178-.262a1.973,1.973,0,0,0-.186-.251c-.066-.083-.123-.167-.19-.248-.153-.14-.263-.316-.429-.442l-.221-.212c-.082-.061-.163-.119-.242-.187-.038-.032-.077-.067-.117-.1l-.128-.082c-.087-.055-.17-.116-.252-.177s-.181-.1-.274-.15l-.134-.08c-.043-.026-.107-.046-.157-.069a7.441,7.441,0,0,0-1.334-.488,6.434,6.434,0,0,0-2.845-.088,6.884,6.884,0,0,0-4.573,3.284c-.105.221-.226.427-.334.653-.1.249-.2.493-.3.739a2.55,2.55,0,0,0-.119.378l-.112.381a5.1,5.1,0,0,0-.169.77,9.9,9.9,0,0,0-.148,1.453,9.362,9.362,0,0,1-.348-1.415,9.6,9.6,0,0,1,.045-3.149,5.214,5.214,0,0,1,.169-.77l.112-.381a2.483,2.483,0,0,1,.119-.378c.1-.246.2-.491.3-.739.107-.227.229-.432.333-.653a6.887,6.887,0,0,1,4.573-3.284,6.431,6.431,0,0,1,2.845.088,7.512,7.512,0,0,1,1.334.488c.05.023.113.044.156.069l.135.08c.092.052.183.1.273.149s.165.122.252.177l.128.082c.041.031.08.066.117.1.079.068.16.126.242.187l.221.212c.166.126.276.3.43.442.067.08.124.165.19.248a1.956,1.956,0,0,1,.186.251c.056.087.116.176.178.262s.1.187.153.28l.081.139.065.146c.042.1.086.2.137.3.035.1.071.2.111.307l.056.156.04.16a5.923,5.923,0,0,1,.2,1.332c-.009.112-.012.227-.01.344l0,.176Z" transform="translate(-2420.414 -1621.246)" fill="#fff"/>
      </g>
      <g id="Group_44" data-name="Group 44" transform="translate(17.185 19.649)" opacity="0.6">
        <path id="Path_40" data-name="Path 40" d="M2120.844,1389.516l.372-.87.412-.829c.132-.279.3-.54.442-.812a22.3,22.3,0,0,1,2.084-3.042,21.3,21.3,0,0,1,2.58-2.633,21.383,21.383,0,0,1,6.3-3.793,21.648,21.648,0,0,1,14.477-.474l.441.14.434.16c.285.112.58.2.862.334l.845.37c.267.135.537.259.8.4a16.671,16.671,0,0,1,7.248,7.576,16.994,16.994,0,0,1,1.609,6.39,17.2,17.2,0,0,0-1.158-3.278,16.674,16.674,0,0,0-7.248-7.576c-.261-.138-.532-.263-.8-.4l-.846-.37c-.282-.131-.576-.223-.862-.334l-.435-.16-.44-.14a21.7,21.7,0,0,0-20.778,4.267,21.335,21.335,0,0,0-2.58,2.633,22.258,22.258,0,0,0-2.084,3.042c-.146.272-.31.534-.442.813l-.411.829-.373.87-.19.435-.164.444-.328.888-.279.9-.138.45-.112.456c-.074.306-.161.605-.227.912a26.772,26.772,0,0,0-.521,3.708,25.842,25.842,0,0,0,.028,3.4,23.883,23.883,0,0,1-.422-2.779,25.157,25.157,0,0,1-.057-3.737,26.683,26.683,0,0,1,.521-3.708c.066-.306.152-.607.226-.912l.112-.457.138-.45.279-.9.329-.888.164-.444Z" transform="translate(-2118.844 -1376.041)" fill="#fff"/>
      </g>
      <g id="Group_45" data-name="Group 45" transform="translate(28.119 35.123)" opacity="0.6">
        <path id="Path_41" data-name="Path 41" d="M2347.623,1663.642l.278-.571.247-.565a23.165,23.165,0,0,0,1.887-9.6c-.007-.425-.03-.847-.061-1.271a23.017,23.017,0,0,1-1.375,13.987l-.247.566-.278.571c-.18.385-.4.747-.6,1.121a19.83,19.83,0,0,1-1.437,2.107,19.187,19.187,0,0,1-22.987,5.674,16.805,16.805,0,0,1-4.4-2.92,15.535,15.535,0,0,1-3.211-4.209,16.391,16.391,0,0,1-1.678-5.013,15.232,15.232,0,0,1-.174-1.768,16.378,16.378,0,0,0,1.4,3.669,15.517,15.517,0,0,0,3.211,4.208,16.8,16.8,0,0,0,4.4,2.92,19.2,19.2,0,0,0,9.963,1.576,19.17,19.17,0,0,0,13.024-7.251,19.9,19.9,0,0,0,1.437-2.106C2347.222,1664.39,2347.442,1664.026,2347.623,1663.642Z" transform="translate(-2313.581 -1651.63)" fill="#fff"/>
      </g>
      <g id="Group_46" data-name="Group 46" transform="translate(40.277 38.317)" opacity="0.6">
        <path id="Path_42" data-name="Path 42" d="M2536.669,1712.051c.046-.106.107-.2.149-.3s.079-.21.121-.313a4.819,4.819,0,0,0,.172-.657c.021-.121.054-.237.076-.352l.039-.354.022-.175,0-.176q0-.175.01-.344c-.023-.3-.046-.584-.1-.868.043.07.093.139.142.208.05.093.1.187.152.279l.081.139.066.147c.041.1.087.2.137.3s.071.2.111.307l.055.156.039.16a5.889,5.889,0,0,1,.2,1.331c-.008.113-.011.227-.01.344l0,.176-.023.176-.039.354c-.021.115-.054.23-.075.352a4.8,4.8,0,0,1-.173.658c-.042.1-.084.2-.121.313s-.1.2-.148.3a5.3,5.3,0,0,1-5.547,2.526l-.052-.007a.772.772,0,0,0-.362.03,6.679,6.679,0,0,1-1.156-.711.827.827,0,0,1,.625-1.474l.052.007A5.3,5.3,0,0,0,2536.669,1712.051Z" transform="translate(-2530.122 -1708.509)" fill="#fff"/>
      </g>
      <g id="Group_47" data-name="Group 47" transform="translate(27.653 26.844)" opacity="0.6">
        <path id="Path_43" data-name="Path 43" d="M2308.24,1513.05c-.215.409-.443.82-.633,1.232l-.5,1.231a5.4,5.4,0,0,0-.207.63l-.184.638a10.879,10.879,0,0,0-.289,1.3,15.967,15.967,0,0,0-.067,5.3,16.382,16.382,0,0,0,.625,2.545,16.358,16.358,0,0,1-1.518-4.7,15.957,15.957,0,0,1,.067-5.3,10.98,10.98,0,0,1,.288-1.3l.185-.638a5.469,5.469,0,0,1,.207-.631l.5-1.231c.19-.412.417-.823.632-1.232a13.25,13.25,0,0,1,3.731-4.114,14.077,14.077,0,0,1,10.63-2.392,13.313,13.313,0,0,1,2.7.792c.111.048.217.083.329.137l.337.167.666.345c.213.13.426.266.635.406l.312.211c.1.073.2.156.3.233.2.158.39.319.582.483s.36.352.535.531a5.446,5.446,0,0,1,.5.562c.158.195.315.392.464.592s.274.419.409.63l.2.318c.061.106.113.22.172.332l.325.673c.1.227.182.462.266.695l.123.35.055.2a.653.653,0,0,0-.048-.092l-.2-.318c-.135-.211-.266-.425-.409-.63s-.307-.4-.464-.592a5.589,5.589,0,0,0-.5-.562c-.176-.18-.35-.362-.536-.531s-.384-.326-.581-.483c-.1-.077-.194-.159-.3-.233l-.312-.211c-.208-.14-.421-.276-.634-.406l-.666-.345-.338-.167c-.111-.055-.217-.089-.329-.137a13.329,13.329,0,0,0-2.7-.792,14.078,14.078,0,0,0-10.63,2.392A13.261,13.261,0,0,0,2308.24,1513.05Z" transform="translate(-2305.282 -1504.172)" fill="#fff"/>
      </g>
      <g id="Group_48" data-name="Group 48" transform="translate(10.721 13.184)" opacity="0.6">
        <path id="Path_44" data-name="Path 44" d="M2004.741,1295.522a31.315,31.315,0,0,0,1.833,8c-.153-.335-.3-.669-.441-1.008a30.92,30.92,0,0,1-2.358-13.881,32.7,32.7,0,0,1,.658-4.69c.085-.385.188-.767.283-1.147l.144-.575.172-.562.35-1.128.408-1.1.2-.55.232-.541.465-1.077.53-1.073c.174-.358.382-.7.572-1.051a28.9,28.9,0,0,1,2.705-3.948,28.219,28.219,0,0,1,3.353-3.426,27.88,27.88,0,0,1,8.17-4.918,28.1,28.1,0,0,1,18.794-.61l.572.182.562.2c.371.146.753.269,1.115.434s.733.312,1.1.479c.365.183.738.358,1.1.548a23.18,23.18,0,0,1,10.054,10.512,22.584,22.584,0,0,1,.893,2.154,23.178,23.178,0,0,0-10.054-10.512c-.362-.19-.734-.365-1.1-.548-.367-.167-.733-.318-1.1-.479s-.744-.288-1.115-.434l-.562-.2-.572-.183a28.1,28.1,0,0,0-18.794.61,27.869,27.869,0,0,0-8.171,4.918,28.235,28.235,0,0,0-3.352,3.426,28.913,28.913,0,0,0-2.705,3.948c-.191.35-.4.693-.572,1.051l-.531,1.073-.465,1.077-.232.541-.2.55-.408,1.1-.349,1.128-.173.562-.144.575c-.094.381-.2.762-.282,1.147a32.691,32.691,0,0,0-.658,4.69A31.568,31.568,0,0,0,2004.741,1295.522Z" transform="translate(-2003.722 -1260.9)" fill="#fff"/>
      </g>
      <g id="Group_49" data-name="Group 49" transform="translate(35.36 31.489)" opacity="0.6">
        <path id="Path_45" data-name="Path 45" d="M2466.18,1594.091a16.7,16.7,0,0,1-1.361,6.924l-.177.409-.188.383c-.116.257-.27.5-.4.746a13.141,13.141,0,0,1-.952,1.4,12.618,12.618,0,0,1-2.408,2.355,12.917,12.917,0,0,1-6.234,2.453,12.706,12.706,0,0,1-6.6-1.048,10.28,10.28,0,0,1-2.636-1.748,9.027,9.027,0,0,1-1.909-2.507,9.684,9.684,0,0,1-.77-1.932,8.775,8.775,0,0,0,1.786,2.284,10.259,10.259,0,0,0,2.636,1.748,12.7,12.7,0,0,0,6.6,1.048,12.916,12.916,0,0,0,6.234-2.453,12.608,12.608,0,0,0,2.408-2.355,13.194,13.194,0,0,0,.952-1.4c.133-.249.287-.489.4-.746l.188-.383.177-.409a16.692,16.692,0,0,0,1.36-6.924,16.9,16.9,0,0,0-.884-5.033l.151.314A16.984,16.984,0,0,1,2466.18,1594.091Z" transform="translate(-2442.539 -1586.903)" fill="#fff"/>
      </g>
      <g id="Group_50" data-name="Group 50" transform="translate(9.982 12.456)">
        <path id="Path_46" data-name="Path 46" d="M2027.842,1313.168a37.855,37.855,0,0,1-15.024-3.054,39.53,39.53,0,0,1-8.135-4.722,39.107,39.107,0,0,1-3.6-3.088l-.41-.394-.021-.022-.4-.421-.288-.3c-.176-.184-.351-.367-.523-.555-.128-.148-.243-.28-.358-.411-.4-.454-.807-.924-1.189-1.423-.411-.5-.8-1.045-1.18-1.574l-.229-.32c-.155-.224-.3-.441-.437-.659-.074-.114-.148-.228-.223-.342l-.323-.5-.016-.027-.3-.506a32.494,32.494,0,0,1-2.151-4.288,31.656,31.656,0,0,1-2.414-14.2,33.6,33.6,0,0,1,.673-4.807c.061-.277.13-.549.2-.819l.233-.929c0-.012.006-.025.01-.037l.522-1.692c0-.012.008-.025.013-.037l.613-1.656c0-.011.009-.022.014-.034l.7-1.619.016-.034.531-1.073c.124-.255.262-.5.4-.738.064-.113.127-.226.189-.339a29.78,29.78,0,0,1,2.782-4.062,29.126,29.126,0,0,1,3.441-3.518,28.62,28.62,0,0,1,8.385-5.048,29.035,29.035,0,0,1,19.292-.625l.569.182.028.01.562.2c.141.055.265.1.39.146.253.093.516.19.778.309l.4.171c.234.1.469.2.7.308l.026.012q.2.1.4.2c.24.118.48.235.716.359a23.916,23.916,0,0,1,10.378,10.85,24.264,24.264,0,0,1,2.325,9.822,23.959,23.959,0,0,1-1.948,9.913l-.248.569-.013.028-.278.571c-.135.287-.292.566-.444.835-.059.105-.119.211-.177.317l-.016.028a19.929,19.929,0,0,1-15.011,9.709,19.8,19.8,0,0,1-10.35-1.637,17.44,17.44,0,0,1-4.6-3.052,16.187,16.187,0,0,1-3.361-4.4,17.074,17.074,0,0,1-1.754-5.241,16.63,16.63,0,0,1,.069-5.545l.034-.186a9.861,9.861,0,0,1,.277-1.207l.178-.619c.021-.067.036-.12.051-.173a4.189,4.189,0,0,1,.185-.541l.491-1.22.014-.034c.155-.336.331-.667.5-.987l.148-.28.015-.026a14.041,14.041,0,0,1,3.94-4.344,14.772,14.772,0,0,1,11.192-2.519,14.078,14.078,0,0,1,2.856.837c.048.021.083.034.118.048.083.032.166.066.252.108l1.019.52.046.026c.221.135.443.277.66.423l.314.212c.1.07.175.131.251.194l.088.07c.208.167.407.333.605.5s.359.347.517.509l.066.068a6.238,6.238,0,0,1,.562.633c.148.183.312.388.467.595.124.177.228.34.331.5l.312.5c.059.1.1.181.14.262.019.039.039.077.059.116l.337.7c.006.011.011.023.016.035.1.229.182.458.28.731l.125.355c.006.015.01.031.015.046l.1.357c.068.26.132.505.188.753q.006.025.01.051l.165,1.109c0,.018,0,.036.005.054l.032.553c.01.189.02.378.026.566,0,.017,0,.033,0,.05-.009.253-.023.5-.039.753l0,.038c-.007.118-.013.234-.025.353,0,.01,0,.021,0,.031l-.052.359c-.038.251-.076.5-.12.739,0,.014-.005.028-.008.042-.058.243-.122.483-.186.72l-.1.351c-.006.021-.012.041-.02.062l-.382,1.005c-.006.015-.013.03-.019.045-.1.226-.218.446-.331.665a10.219,10.219,0,0,1-.811,1.324l-.023.031c-.158.2-.319.407-.484.6-.131.155-.267.289-.4.419-.049.049-.1.1-.146.146a9.284,9.284,0,0,1-2.586,1.759,8.8,8.8,0,0,1-2.922.733,7.786,7.786,0,0,1-5.363-1.552,1.567,1.567,0,0,1,1.185-2.791l.039.005a4.56,4.56,0,0,0,4.785-2.112c.027-.059.056-.115.085-.17.013-.026.028-.051.039-.077.032-.094.068-.182.1-.271l.01-.024.042-.136a2.6,2.6,0,0,0,.1-.39c.016-.092.033-.168.051-.243.008-.036.017-.071.024-.106l.053-.46,0-.121c0-.123,0-.24.009-.354a5.093,5.093,0,0,0-.169-1.114c0-.015-.009-.03-.012-.045l-.073-.245c-.031-.078-.064-.171-.1-.265-.05-.1-.1-.2-.139-.305l-.1-.193c-.041-.068-.083-.147-.125-.227l-.019-.037c-.059-.083-.116-.168-.169-.25l-.016-.027a1.4,1.4,0,0,0-.108-.142c-.052-.064-.085-.108-.117-.152l-.056-.075c-.076-.074-.139-.146-.2-.211a1.222,1.222,0,0,0-.138-.146.725.725,0,0,1-.064-.055l-.192-.183c-.083-.062-.164-.122-.244-.192l-.028-.024-.032-.028-.1-.064c-.083-.052-.166-.111-.248-.172l-.231-.127-.154-.087c-.032-.013-.064-.026-.093-.04a6.72,6.72,0,0,0-1.2-.442,5.714,5.714,0,0,0-2.522-.081,6.145,6.145,0,0,0-4.064,2.9c-.053.11-.109.216-.166.323-.048.092-.1.184-.144.28-.1.244-.193.485-.293.728l-.018.04a1.146,1.146,0,0,0-.037.125c-.012.048-.025.1-.04.144l-.11.375c0,.013-.008.027-.013.04a2.906,2.906,0,0,0-.1.457c-.012.068-.024.136-.037.2a8.8,8.8,0,0,0-.042,2.895,9.151,9.151,0,0,0,.934,2.765,8.278,8.278,0,0,0,1.748,2.3,9.505,9.505,0,0,0,2.456,1.629,11.93,11.93,0,0,0,6.21.983,12.113,12.113,0,0,0,5.873-2.312,11.872,11.872,0,0,0,2.262-2.211,12.168,12.168,0,0,0,.9-1.313c.048-.089.1-.178.149-.266.083-.146.162-.284.222-.417l.191-.39.17-.393a16.033,16.033,0,0,0,1.3-6.614,16.3,16.3,0,0,0-1.555-6.573,15.934,15.934,0,0,0-6.927-7.239c-.149-.079-.3-.154-.457-.229-.1-.051-.207-.1-.309-.153l-.827-.362c-.17-.079-.34-.14-.52-.206-.105-.038-.211-.076-.315-.117l-.4-.149-.425-.134a20.776,20.776,0,0,0-13.983.457,21.033,21.033,0,0,0-3.206,1.57,21.245,21.245,0,0,0-2.883,2.094,20.717,20.717,0,0,0-2.491,2.541,21.647,21.647,0,0,0-2.013,2.94c-.047.088-.105.191-.164.294-.092.163-.18.316-.251.468l-.409.824-.547,1.271-.479,1.293-.4,1.308-.107.436c-.028.118-.06.238-.091.357-.046.177-.092.354-.131.534a26.11,26.11,0,0,0-.507,3.6,24.163,24.163,0,0,0,.056,3.614,25.535,25.535,0,0,0,5.517,13.384,30.378,30.378,0,0,0,26.529,11.254,34.466,34.466,0,0,0,14.376-4.617,35.672,35.672,0,0,0,11.156-10.26c.114-.162.229-.325.335-.49a.74.74,0,0,1,1.309.674c-.275.693-.568,1.378-.871,2.035h0A39.707,39.707,0,0,1,2037,1312.11a.75.75,0,0,1-.137.045,41.4,41.4,0,0,1-5.523.859Q2029.588,1313.169,2027.842,1313.168Zm-26.136-12.314.407.392a37.3,37.3,0,0,0,11.288,7.509,36.784,36.784,0,0,0,17.81,2.786,39.923,39.923,0,0,0,5.255-.813,38.21,38.21,0,0,0,17.075-15.033,37.267,37.267,0,0,1-7.774,6.065,35.945,35.945,0,0,1-15,4.814,31.855,31.855,0,0,1-27.815-11.807,27.02,27.02,0,0,1-5.832-14.164,25.567,25.567,0,0,1-.06-3.841,27.612,27.612,0,0,1,.537-3.824c.043-.2.095-.4.146-.6.029-.112.058-.223.085-.336l.112-.458c0-.014.007-.027.011-.041l.417-1.351c0-.013.008-.025.013-.038l.493-1.332c0-.013.01-.026.015-.038l.561-1.3c.005-.013.011-.025.017-.038l.412-.829c.089-.189.195-.375.3-.554.053-.092.105-.185.156-.279a23.11,23.11,0,0,1,2.162-3.16,22.169,22.169,0,0,1,2.67-2.726,22.691,22.691,0,0,1,3.085-2.241,22.573,22.573,0,0,1,18.4-2.169l.437.138.032.011.435.16c.107.042.2.075.3.11.2.073.408.148.621.247l.832.364.037.017c.1.052.206.1.309.152.169.082.336.164.5.251a17.4,17.4,0,0,1,7.571,7.913,17.793,17.793,0,0,1,1.7,7.175,17.528,17.528,0,0,1-1.421,7.231l-.178.411-.015.033-.189.383c-.078.174-.178.35-.275.519-.047.082-.094.164-.138.248-.007.013-.015.026-.023.039a13.547,13.547,0,0,1-1.007,1.473,13.349,13.349,0,0,1-2.537,2.48,13.6,13.6,0,0,1-6.6,2.6,13.422,13.422,0,0,1-6.99-1.109,10.943,10.943,0,0,1-2.833-1.878,9.733,9.733,0,0,1-2.061-2.7,10.644,10.644,0,0,1-1.086-3.22,10.318,10.318,0,0,1,.047-3.4c.013-.071.024-.13.034-.189a4.209,4.209,0,0,1,.16-.68l.106-.363c.011-.035.019-.065.026-.095a2.1,2.1,0,0,1,.126-.374c.1-.236.192-.471.286-.709.006-.016.013-.031.02-.047.059-.124.121-.242.183-.36.051-.1.1-.194.15-.294.009-.018.018-.035.027-.052a7.625,7.625,0,0,1,5.073-3.64,7.187,7.187,0,0,1,3.17.1,8.1,8.1,0,0,1,1.46.533l.026.01a1.5,1.5,0,0,1,.2.095l.133.079c.074.041.157.088.242.132a.724.724,0,0,1,.1.061c.069.051.134.1.2.144l.135.087.042.029c.044.033.087.069.129.1l.025.021c.057.049.108.086.16.125l.045.034a.687.687,0,0,1,.071.06l.2.188a2.5,2.5,0,0,1,.322.323,1.552,1.552,0,0,0,.122.132.764.764,0,0,1,.067.071c.046.055.089.112.132.17.022.03.044.06.068.09a2.7,2.7,0,0,1,.238.324c.048.074.1.149.151.222a.727.727,0,0,1,.049.078l.046.087c.028.053.056.108.088.161l.087.149a.659.659,0,0,1,.036.069l.066.146c.043.105.08.184.121.264a.742.742,0,0,1,.039.092c.032.093.066.188.1.283l.063.176c.008.024.016.048.021.072l.034.139a6.715,6.715,0,0,1,.229,1.473.691.691,0,0,1,0,.11c-.007.092-.01.186-.009.281l0,.17a.7.7,0,0,1-.006.109l-.06.514c0,.018,0,.036-.008.053-.012.065-.027.131-.042.2-.011.049-.023.1-.031.148a3.927,3.927,0,0,1-.146.589c-.015.048-.03.1-.045.147a.681.681,0,0,1-.025.073l-.026.063c-.028.066-.055.132-.079.2-.005.015-.01.031-.017.046-.031.077-.069.152-.108.226-.016.031-.033.061-.047.094-.006.014-.012.027-.019.041a6.041,6.041,0,0,1-6.313,2.923l-.04-.005a.1.1,0,0,0-.1.034.088.088,0,0,0,.02.122,6.3,6.3,0,0,0,4.34,1.247,7.332,7.332,0,0,0,2.432-.607,7.762,7.762,0,0,0,2.153-1.461c.039-.04.094-.094.148-.148.114-.112.221-.219.312-.325.148-.174.29-.353.429-.533a9.067,9.067,0,0,0,.693-1.126c.108-.209.209-.4.3-.6l.358-.941.088-.316c.058-.212.115-.431.168-.652s.074-.447.108-.674l.05-.34c.009-.09.013-.178.019-.267l0-.046c.015-.234.028-.462.037-.691-.006-.168-.015-.339-.023-.509l-.03-.515-.046-.339-.107-.687c-.052-.224-.109-.447-.168-.672l-.09-.321-.115-.327c-.086-.238-.161-.441-.243-.636l-.317-.655c-.013-.024-.038-.073-.062-.122s-.055-.111-.085-.164l-.293-.465c-.091-.144-.182-.288-.28-.428-.129-.172-.282-.363-.433-.55a5.079,5.079,0,0,0-.45-.5l-.073-.075c-.15-.154-.292-.3-.438-.433-.167-.143-.354-.3-.544-.452l-.1-.079c-.054-.044-.109-.089-.166-.13l-.3-.2c-.191-.128-.387-.254-.584-.374l-.968-.494c-.044-.022-.091-.04-.138-.058s-.1-.041-.157-.064a12.558,12.558,0,0,0-2.542-.743,13.284,13.284,0,0,0-10.065,2.265,12.556,12.556,0,0,0-3.517,3.872l-.144.272c-.165.31-.321.6-.457.9l-.489,1.214c0,.009-.007.018-.011.026a2.922,2.922,0,0,0-.12.361c-.018.062-.036.124-.055.186l-.18.624a8.687,8.687,0,0,0-.239,1.048l-.034.182a15.145,15.145,0,0,0-.064,5.043,15.6,15.6,0,0,0,1.6,4.785,14.719,14.719,0,0,0,3.056,4.007,16.191,16.191,0,0,0,4.211,2.795,18.439,18.439,0,0,0,22.094-5.455,18.8,18.8,0,0,0,1.381-2.023c.059-.107.118-.213.178-.319.145-.257.281-.5.4-.746l.276-.567.24-.551a22.464,22.464,0,0,0,1.826-9.293,22.773,22.773,0,0,0-2.182-9.22,22.439,22.439,0,0,0-9.733-10.176c-.22-.116-.448-.227-.675-.338-.132-.065-.265-.129-.4-.2-.221-.1-.442-.195-.663-.29l-.416-.179c-.221-.1-.447-.183-.686-.271-.134-.049-.269-.1-.4-.151l-.531-.193-.558-.178a27.537,27.537,0,0,0-18.3.593,27.125,27.125,0,0,0-7.959,4.791,27.556,27.556,0,0,0-3.263,3.335,28.246,28.246,0,0,0-2.635,3.846c-.058.107-.126.227-.193.346-.128.228-.25.443-.356.661l-.524,1.061-.682,1.582-.6,1.616-.509,1.65-.23.917c-.065.254-.13.51-.187.766a32.119,32.119,0,0,0-.643,4.579,31.1,31.1,0,0,0,4.359,17.648l.295.5.31.479c.073.111.15.228.226.346.134.205.267.411.406.612l.224.312c.38.532.739,1.034,1.135,1.514.369.482.747.913,1.145,1.37.117.134.233.267.349.4.15.164.318.339.487.515q.146.152.292.306Zm22.708-30.554.006,0Z" transform="translate(-1990.559 -1247.938)" fill="#b400ff"/>
      </g>
      <g id="Group_51" data-name="Group 51" transform="translate(23.334 14.358)" opacity="0.3">
        <path id="Path_47" data-name="Path 47" d="M2278.667,1321.87a39.028,39.028,0,0,1-6,9.283,35.759,35.759,0,0,1-13.729,5.9,33.636,33.636,0,0,1-19.533-2.179,39.224,39.224,0,0,1-11.04-7.111c25.351,20.137,68.156-14.174,44.763-45.95l1.69.78a39.006,39.006,0,0,1,4.7,37.279c-.123.309-.251.618-.383.929v0q-.17.405-.354.8C2278.748,1321.7,2278.707,1321.784,2278.667,1321.87Z" transform="translate(-2228.368 -1281.814)" fill="#000072"/>
      </g>
      <g id="Group_52" data-name="Group 52" transform="translate(1.611 45.214)" opacity="0.3">
        <path id="Path_48" data-name="Path 48" d="M1906.621,1850.816a36.912,36.912,0,0,1-65.141-19.141c.622-.209.975-.325.975-.325s1.194,12.748,18.019,20.68c0,0,6.958,4.149,7.455-1.016a61.2,61.2,0,0,0,6.315,2.541,42.183,42.183,0,0,0,19.533,2.179A31.176,31.176,0,0,0,1906.621,1850.816Z" transform="translate(-1841.48 -1831.349)" fill="#000072"/>
      </g>
    </g>
    <g id="Group_296" data-name="Group 296" transform="translate(731.386 524.624)">
      <path id="Path_415" data-name="Path 415" d="M120,105A38,38,0,1,0,82,67,38,38,0,0,0,120,105Z" fill="#57b1fa"/>
      <path id="Path_416" data-name="Path 416" d="M110.507,57.261,93.066,80.514H96.61l3.828-5.1h12.168V72.574h-10.04L114.051,57.26h-3.544Zm39.222,23.253L132.29,57.261h-3.547l11.486,15.314h-10.04v2.836h12.167l3.829,5.1h3.544ZM122.815,44.546H119.98v35.97h2.836Z" transform="translate(-1.399 -1.966)" fill="#1e262d"/>
      <circle id="Ellipse_29" data-name="Ellipse 29" cx="36.761" cy="36.761" r="36.761" transform="translate(83.239 30.239)" fill="none" stroke="#191326" stroke-width="2.837" opacity="0.2"/>
    </g>
  </g>
</svg>
